<svg width="340" height="170" viewBox="0 0 340 170" fill="none" xmlns="http://www.w3.org/2000/svg">
<path d="M116.285 57.8086H123.105L130.312 75.4043H130.611L137.836 57.8086H144.709V84H139.277V66.9492H139.084L132.281 83.877H128.607L121.875 66.9141H121.646V84H116.285V57.8086ZM165.342 75.6504V64.3477H170.791V84H165.553V80.4316H165.342C164.909 81.5801 164.176 82.5059 163.145 83.209C162.125 83.9121 160.877 84.2578 159.401 84.2461C157.42 84.2578 155.815 83.6074 154.584 82.2949C153.366 80.9707 152.756 79.1602 152.756 76.8633V64.3477H158.205V75.9141C158.205 77.0625 158.516 77.9766 159.137 78.6562C159.758 79.3242 160.584 79.6523 161.616 79.6406C162.588 79.6523 163.45 79.3184 164.2 78.6387C164.961 77.959 165.342 76.9629 165.342 75.6504ZM195.063 69.9551L190.106 70.2539C189.966 69.6328 189.614 69.0996 189.052 68.6543C188.501 68.1973 187.751 67.9688 186.802 67.9688C185.958 67.9688 185.249 68.1445 184.675 68.4961C184.1 68.8477 183.813 69.3164 183.813 69.9023C183.813 70.3711 184.001 70.7695 184.376 71.0977C184.751 71.4258 185.389 71.6895 186.292 71.8887L189.86 72.5918C193.634 73.3418 195.52 75.1113 195.52 77.9004C195.52 79.2012 195.145 80.3379 194.395 81.3105C193.645 82.2832 192.614 83.0391 191.302 83.5781C189.989 84.1172 188.483 84.3867 186.784 84.3867C184.182 84.3867 182.114 83.8477 180.579 82.7695C179.044 81.6797 178.141 80.1973 177.872 78.3223L183.216 78.041C183.579 79.6582 184.774 80.4668 186.802 80.4668C187.751 80.4668 188.518 80.2793 189.104 79.9043C189.69 79.5293 189.983 79.0547 189.983 78.4805C189.983 77.5078 189.145 76.8516 187.47 76.5117L184.077 75.8086C180.292 75.0469 178.399 73.1836 178.399 70.2188C178.399 68.3203 179.155 66.8262 180.667 65.7363C182.19 64.6465 184.206 64.1016 186.714 64.1016C189.198 64.1016 191.155 64.6289 192.585 65.6836C194.014 66.7266 194.841 68.1504 195.063 69.9551ZM213.007 64.3477V68.4609H209.28V77.9531C209.28 79.2305 209.902 79.8691 211.144 79.8691C211.355 79.8691 211.583 79.8516 211.829 79.8164C212.087 79.7812 212.31 79.7402 212.497 79.6934L213.359 83.7715C212.198 84.1113 211.073 84.2812 209.984 84.2812C208.038 84.2812 206.527 83.7891 205.448 82.8047C204.382 81.8203 203.849 80.4434 203.849 78.6738V68.4609H201.177V64.3477H203.849V59.6719H209.28V64.3477H213.007ZM220.263 84V57.8086H230.74C233.623 57.8086 235.791 58.4414 237.244 59.707C238.697 60.9609 239.423 62.5664 239.423 64.5234C239.423 66.0586 238.972 67.3066 238.07 68.2676C237.179 69.2168 236.054 69.8438 234.695 70.1484V70.4121C235.691 70.459 236.623 70.7402 237.49 71.2559C238.369 71.7715 239.078 72.498 239.617 73.4355C240.168 74.3613 240.443 75.4688 240.443 76.7578C240.443 78.1406 240.103 79.3828 239.423 80.4844C238.744 81.5742 237.736 82.4355 236.4 83.0684C235.064 83.6895 233.412 84 231.443 84H220.263ZM229.896 68.7773C231.021 68.7773 231.959 68.4785 232.709 67.8809C233.459 67.2832 233.834 66.4688 233.834 65.4375C233.834 64.5 233.5 63.7441 232.832 63.1699C232.164 62.584 231.22 62.291 230.002 62.291H225.783V68.7773H229.896ZM230.3 79.4824C231.847 79.4824 232.972 79.1836 233.675 78.5859C234.39 77.9883 234.748 77.1973 234.748 76.2129C234.748 75.1348 234.361 74.25 233.588 73.5586C232.814 72.8555 231.765 72.5039 230.441 72.5039H225.783V79.4824H230.3ZM256.506 84.3867C254.49 84.3867 252.756 83.9766 251.303 83.1562C249.85 82.3359 248.73 81.1699 247.945 79.6582C247.16 78.1348 246.768 76.3359 246.768 74.2617C246.768 72.2461 247.154 70.4766 247.928 68.9531C248.713 67.4297 249.814 66.2402 251.232 65.3848C252.65 64.5293 254.32 64.1016 256.242 64.1016C257.977 64.1016 259.541 64.4707 260.936 65.209C262.342 65.9473 263.455 67.0547 264.275 68.5312C265.107 70.0078 265.523 71.8594 265.523 74.0859V75.5625H252.129C252.188 77.0508 252.621 78.2168 253.43 79.0605C254.238 79.9043 255.293 80.3262 256.594 80.3262C257.496 80.3262 258.27 80.1328 258.914 79.7461C259.57 79.3594 260.039 78.7969 260.32 78.0586L265.348 78.3926C264.961 80.1973 263.994 81.6504 262.447 82.752C260.912 83.8418 258.932 84.3867 256.506 84.3867ZM252.164 72.2051H260.303C260.174 70.9629 259.775 69.9785 259.107 69.252C258.439 68.5254 257.502 68.1621 256.295 68.1621C255.076 68.1621 254.109 68.543 253.395 69.3047C252.691 70.0547 252.281 71.0215 252.164 72.2051Z" fill="white"/>
<path d="M119.341 98.8182L115.591 112.75H114.364L118.114 98.8182H119.341ZM125.044 98.8182L121.294 112.75H120.067L123.817 98.8182H125.044ZM134.793 111.182C133.952 111.182 133.226 110.996 132.616 110.625C132.01 110.25 131.543 109.727 131.213 109.057C130.887 108.383 130.724 107.598 130.724 106.705C130.724 105.811 130.887 105.023 131.213 104.341C131.543 103.655 132.001 103.121 132.588 102.739C133.179 102.352 133.868 102.159 134.656 102.159C135.111 102.159 135.56 102.235 136.003 102.386C136.446 102.538 136.849 102.784 137.213 103.125C137.577 103.462 137.866 103.909 138.082 104.466C138.298 105.023 138.406 105.708 138.406 106.523V107.091H131.679V105.932H137.043C137.043 105.439 136.944 105 136.747 104.614C136.554 104.227 136.277 103.922 135.918 103.699C135.562 103.475 135.141 103.364 134.656 103.364C134.122 103.364 133.66 103.496 133.27 103.761C132.884 104.023 132.586 104.364 132.378 104.784C132.17 105.205 132.065 105.655 132.065 106.136V106.909C132.065 107.568 132.179 108.127 132.406 108.585C132.637 109.04 132.957 109.386 133.366 109.625C133.776 109.86 134.251 109.977 134.793 109.977C135.145 109.977 135.463 109.928 135.747 109.83C136.035 109.727 136.283 109.576 136.491 109.375C136.7 109.17 136.861 108.917 136.974 108.614L138.27 108.977C138.134 109.417 137.904 109.803 137.582 110.136C137.26 110.466 136.863 110.723 136.389 110.909C135.916 111.091 135.384 111.182 134.793 111.182ZM141.787 105.75V111H140.446V102.273H141.741V103.636H141.855C142.06 103.193 142.37 102.837 142.787 102.568C143.204 102.295 143.741 102.159 144.401 102.159C144.991 102.159 145.509 102.28 145.952 102.523C146.395 102.761 146.74 103.125 146.986 103.614C147.232 104.098 147.355 104.712 147.355 105.455V111H146.014V105.545C146.014 104.86 145.836 104.326 145.48 103.943C145.124 103.557 144.635 103.364 144.014 103.364C143.586 103.364 143.204 103.456 142.866 103.642C142.533 103.828 142.27 104.098 142.077 104.455C141.884 104.811 141.787 105.242 141.787 105.75ZM153.692 102.273V103.409H148.987V102.273H153.692ZM150.396 111V101.068C150.396 100.568 150.514 100.152 150.749 99.8182C150.983 99.4848 151.288 99.2348 151.663 99.0682C152.038 98.9015 152.434 98.8182 152.851 98.8182C153.18 98.8182 153.449 98.8447 153.658 98.8977C153.866 98.9508 154.021 99 154.124 99.0455L153.737 100.205C153.669 100.182 153.574 100.153 153.453 100.119C153.336 100.085 153.18 100.068 152.987 100.068C152.544 100.068 152.224 100.18 152.027 100.403C151.834 100.627 151.737 100.955 151.737 101.386V111H150.396ZM158.757 111.182C157.969 111.182 157.278 110.994 156.683 110.619C156.092 110.244 155.63 109.72 155.297 109.045C154.967 108.371 154.803 107.583 154.803 106.682C154.803 105.773 154.967 104.979 155.297 104.301C155.63 103.623 156.092 103.097 156.683 102.722C157.278 102.347 157.969 102.159 158.757 102.159C159.545 102.159 160.234 102.347 160.825 102.722C161.42 103.097 161.882 103.623 162.212 104.301C162.545 104.979 162.712 105.773 162.712 106.682C162.712 107.583 162.545 108.371 162.212 109.045C161.882 109.72 161.42 110.244 160.825 110.619C160.234 110.994 159.545 111.182 158.757 111.182ZM158.757 109.977C159.356 109.977 159.848 109.824 160.234 109.517C160.621 109.21 160.907 108.807 161.092 108.307C161.278 107.807 161.371 107.265 161.371 106.682C161.371 106.098 161.278 105.555 161.092 105.051C160.907 104.547 160.621 104.14 160.234 103.83C159.848 103.519 159.356 103.364 158.757 103.364C158.159 103.364 157.666 103.519 157.28 103.83C156.893 104.14 156.607 104.547 156.422 105.051C156.236 105.555 156.143 106.098 156.143 106.682C156.143 107.265 156.236 107.807 156.422 108.307C156.607 108.807 156.893 109.21 157.28 109.517C157.666 109.824 158.159 109.977 158.757 109.977ZM164.759 111V102.273H166.054V103.591H166.145C166.304 103.159 166.592 102.809 167.009 102.54C167.425 102.271 167.895 102.136 168.418 102.136C168.516 102.136 168.639 102.138 168.787 102.142C168.935 102.146 169.046 102.152 169.122 102.159V103.523C169.077 103.511 168.973 103.494 168.81 103.472C168.651 103.445 168.482 103.432 168.304 103.432C167.88 103.432 167.501 103.521 167.168 103.699C166.838 103.873 166.577 104.116 166.384 104.426C166.194 104.733 166.099 105.083 166.099 105.477V111H164.759ZM173.991 111.182C173.173 111.182 172.469 110.989 171.878 110.602C171.287 110.216 170.832 109.684 170.514 109.006C170.196 108.328 170.037 107.553 170.037 106.682C170.037 105.795 170.2 105.013 170.526 104.335C170.855 103.653 171.313 103.121 171.901 102.739C172.491 102.352 173.181 102.159 173.969 102.159C174.582 102.159 175.135 102.273 175.628 102.5C176.12 102.727 176.524 103.045 176.838 103.455C177.152 103.864 177.348 104.341 177.423 104.886H176.082C175.98 104.489 175.753 104.136 175.401 103.83C175.052 103.519 174.582 103.364 173.991 103.364C173.469 103.364 173.01 103.5 172.616 103.773C172.226 104.042 171.921 104.422 171.702 104.915C171.486 105.403 171.378 105.977 171.378 106.636C171.378 107.311 171.484 107.898 171.696 108.398C171.912 108.898 172.215 109.286 172.605 109.562C172.999 109.839 173.461 109.977 173.991 109.977C174.34 109.977 174.656 109.917 174.94 109.795C175.224 109.674 175.465 109.5 175.662 109.273C175.859 109.045 175.999 108.773 176.082 108.455H177.423C177.348 108.97 177.16 109.434 176.861 109.847C176.565 110.256 176.173 110.581 175.685 110.824C175.2 111.062 174.635 111.182 173.991 111.182ZM183.043 111.182C182.202 111.182 181.476 110.996 180.866 110.625C180.26 110.25 179.793 109.727 179.463 109.057C179.137 108.383 178.974 107.598 178.974 106.705C178.974 105.811 179.137 105.023 179.463 104.341C179.793 103.655 180.251 103.121 180.838 102.739C181.429 102.352 182.118 102.159 182.906 102.159C183.361 102.159 183.81 102.235 184.253 102.386C184.696 102.538 185.099 102.784 185.463 103.125C185.827 103.462 186.116 103.909 186.332 104.466C186.548 105.023 186.656 105.708 186.656 106.523V107.091H179.929V105.932H185.293C185.293 105.439 185.194 105 184.997 104.614C184.804 104.227 184.527 103.922 184.168 103.699C183.812 103.475 183.391 103.364 182.906 103.364C182.372 103.364 181.91 103.496 181.52 103.761C181.134 104.023 180.836 104.364 180.628 104.784C180.42 105.205 180.315 105.655 180.315 106.136V106.909C180.315 107.568 180.429 108.127 180.656 108.585C180.887 109.04 181.207 109.386 181.616 109.625C182.026 109.86 182.501 109.977 183.043 109.977C183.395 109.977 183.713 109.928 183.997 109.83C184.285 109.727 184.533 109.576 184.741 109.375C184.95 109.17 185.111 108.917 185.224 108.614L186.52 108.977C186.384 109.417 186.154 109.803 185.832 110.136C185.51 110.466 185.113 110.723 184.639 110.909C184.166 111.091 183.634 111.182 183.043 111.182ZM194.446 107.818L194.423 106.159H194.696L198.514 102.273H200.173L196.105 106.386H195.991L194.446 107.818ZM193.196 111V99.3636H194.537V111H193.196ZM198.741 111L195.332 106.682L196.287 105.75L200.446 111H198.741ZM205.085 111.182C204.297 111.182 203.606 110.994 203.011 110.619C202.42 110.244 201.958 109.72 201.625 109.045C201.295 108.371 201.131 107.583 201.131 106.682C201.131 105.773 201.295 104.979 201.625 104.301C201.958 103.623 202.42 103.097 203.011 102.722C203.606 102.347 204.297 102.159 205.085 102.159C205.873 102.159 206.563 102.347 207.153 102.722C207.748 103.097 208.21 103.623 208.54 104.301C208.873 104.979 209.04 105.773 209.04 106.682C209.04 107.583 208.873 108.371 208.54 109.045C208.21 109.72 207.748 110.244 207.153 110.619C206.563 110.994 205.873 111.182 205.085 111.182ZM205.085 109.977C205.684 109.977 206.176 109.824 206.562 109.517C206.949 109.21 207.235 108.807 207.42 108.307C207.606 107.807 207.699 107.265 207.699 106.682C207.699 106.098 207.606 105.555 207.42 105.051C207.235 104.547 206.949 104.14 206.562 103.83C206.176 103.519 205.684 103.364 205.085 103.364C204.487 103.364 203.994 103.519 203.608 103.83C203.222 104.14 202.936 104.547 202.75 105.051C202.564 105.555 202.472 106.098 202.472 106.682C202.472 107.265 202.564 107.807 202.75 108.307C202.936 108.807 203.222 109.21 203.608 109.517C203.994 109.824 204.487 109.977 205.085 109.977ZM214.882 102.273V103.409H210.359V102.273H214.882ZM211.678 100.182H213.018V108.5C213.018 108.879 213.073 109.163 213.183 109.352C213.297 109.538 213.441 109.663 213.615 109.727C213.793 109.788 213.981 109.818 214.178 109.818C214.325 109.818 214.446 109.811 214.541 109.795C214.636 109.777 214.712 109.761 214.768 109.75L215.041 110.955C214.95 110.989 214.823 111.023 214.661 111.057C214.498 111.095 214.291 111.114 214.041 111.114C213.662 111.114 213.291 111.032 212.928 110.869C212.568 110.706 212.268 110.458 212.03 110.125C211.795 109.792 211.678 109.371 211.678 108.864V100.182ZM218.428 99.3636V111H217.087V99.3636H218.428ZM220.884 111V102.273H222.224V111H220.884ZM221.565 100.818C221.304 100.818 221.079 100.729 220.889 100.551C220.704 100.373 220.611 100.159 220.611 99.9091C220.611 99.6591 220.704 99.4451 220.889 99.267C221.079 99.089 221.304 99 221.565 99C221.827 99 222.05 99.089 222.236 99.267C222.425 99.4451 222.52 99.6591 222.52 99.9091C222.52 100.159 222.425 100.373 222.236 100.551C222.05 100.729 221.827 100.818 221.565 100.818ZM226.021 105.75V111H224.68V102.273H225.976V103.636H226.089C226.294 103.193 226.605 102.837 227.021 102.568C227.438 102.295 227.976 102.159 228.635 102.159C229.226 102.159 229.743 102.28 230.186 102.523C230.629 102.761 230.974 103.125 231.22 103.614C231.466 104.098 231.589 104.712 231.589 105.455V111H230.249V105.545C230.249 104.86 230.071 104.326 229.714 103.943C229.358 103.557 228.87 103.364 228.249 103.364C227.821 103.364 227.438 103.456 227.101 103.642C226.768 103.828 226.504 104.098 226.311 104.455C226.118 104.811 226.021 105.242 226.021 105.75ZM241.108 111.205C240.555 111.205 240.053 111.1 239.602 110.892C239.152 110.68 238.794 110.375 238.528 109.977C238.263 109.576 238.131 109.091 238.131 108.523C238.131 108.023 238.229 107.617 238.426 107.307C238.623 106.992 238.886 106.746 239.216 106.568C239.545 106.39 239.909 106.258 240.307 106.17C240.708 106.08 241.112 106.008 241.517 105.955C242.047 105.886 242.477 105.835 242.807 105.801C243.14 105.763 243.383 105.701 243.534 105.614C243.689 105.527 243.767 105.375 243.767 105.159V105.114C243.767 104.553 243.614 104.117 243.307 103.807C243.004 103.496 242.544 103.341 241.926 103.341C241.286 103.341 240.784 103.481 240.42 103.761C240.057 104.042 239.801 104.341 239.653 104.659L238.381 104.205C238.608 103.674 238.911 103.261 239.29 102.966C239.672 102.667 240.089 102.458 240.54 102.341C240.994 102.22 241.441 102.159 241.881 102.159C242.161 102.159 242.483 102.193 242.847 102.261C243.214 102.326 243.568 102.46 243.909 102.665C244.254 102.869 244.54 103.178 244.767 103.591C244.994 104.004 245.108 104.557 245.108 105.25V111H243.767V109.818H243.699C243.608 110.008 243.456 110.21 243.244 110.426C243.032 110.642 242.75 110.826 242.398 110.977C242.045 111.129 241.616 111.205 241.108 111.205ZM241.312 110C241.843 110 242.29 109.896 242.653 109.688C243.021 109.479 243.297 109.21 243.483 108.881C243.672 108.551 243.767 108.205 243.767 107.841V106.614C243.71 106.682 243.585 106.744 243.392 106.801C243.203 106.854 242.983 106.902 242.733 106.943C242.487 106.981 242.246 107.015 242.011 107.045C241.78 107.072 241.593 107.095 241.449 107.114C241.1 107.159 240.775 107.233 240.472 107.335C240.172 107.434 239.93 107.583 239.744 107.784C239.563 107.981 239.472 108.25 239.472 108.591C239.472 109.057 239.644 109.409 239.989 109.648C240.337 109.883 240.778 110 241.312 110ZM248.896 105.75V111H247.555V102.273H248.851V103.636H248.964C249.169 103.193 249.48 102.837 249.896 102.568C250.313 102.295 250.851 102.159 251.51 102.159C252.101 102.159 252.618 102.28 253.061 102.523C253.504 102.761 253.849 103.125 254.095 103.614C254.341 104.098 254.464 104.712 254.464 105.455V111H253.124V105.545C253.124 104.86 252.946 104.326 252.589 103.943C252.233 103.557 251.745 103.364 251.124 103.364C250.696 103.364 250.313 103.456 249.976 103.642C249.643 103.828 249.379 104.098 249.186 104.455C248.993 104.811 248.896 105.242 248.896 105.75ZM258.256 105.75V111H256.915V102.273H258.21V103.636H258.324C258.528 103.193 258.839 102.837 259.256 102.568C259.672 102.295 260.21 102.159 260.869 102.159C261.46 102.159 261.977 102.28 262.42 102.523C262.864 102.761 263.208 103.125 263.455 103.614C263.701 104.098 263.824 104.712 263.824 105.455V111H262.483V105.545C262.483 104.86 262.305 104.326 261.949 103.943C261.593 103.557 261.104 103.364 260.483 103.364C260.055 103.364 259.672 103.456 259.335 103.642C259.002 103.828 258.739 104.098 258.545 104.455C258.352 104.811 258.256 105.242 258.256 105.75ZM269.82 111.182C269.032 111.182 268.34 110.994 267.746 110.619C267.155 110.244 266.693 109.72 266.359 109.045C266.03 108.371 265.865 107.583 265.865 106.682C265.865 105.773 266.03 104.979 266.359 104.301C266.693 103.623 267.155 103.097 267.746 102.722C268.34 102.347 269.032 102.159 269.82 102.159C270.607 102.159 271.297 102.347 271.888 102.722C272.482 103.097 272.945 103.623 273.274 104.301C273.607 104.979 273.774 105.773 273.774 106.682C273.774 107.583 273.607 108.371 273.274 109.045C272.945 109.72 272.482 110.244 271.888 110.619C271.297 110.994 270.607 111.182 269.82 111.182ZM269.82 109.977C270.418 109.977 270.911 109.824 271.297 109.517C271.683 109.21 271.969 108.807 272.155 108.307C272.34 107.807 272.433 107.265 272.433 106.682C272.433 106.098 272.34 105.555 272.155 105.051C271.969 104.547 271.683 104.14 271.297 103.83C270.911 103.519 270.418 103.364 269.82 103.364C269.221 103.364 268.729 103.519 268.342 103.83C267.956 104.14 267.67 104.547 267.484 105.051C267.299 105.555 267.206 106.098 267.206 106.682C267.206 107.265 267.299 107.807 267.484 108.307C267.67 108.807 267.956 109.21 268.342 109.517C268.729 109.824 269.221 109.977 269.82 109.977ZM279.616 102.273V103.409H275.094V102.273H279.616ZM276.412 100.182H277.753V108.5C277.753 108.879 277.808 109.163 277.918 109.352C278.031 109.538 278.175 109.663 278.349 109.727C278.527 109.788 278.715 109.818 278.912 109.818C279.06 109.818 279.181 109.811 279.276 109.795C279.37 109.777 279.446 109.761 279.503 109.75L279.776 110.955C279.685 110.989 279.558 111.023 279.395 111.057C279.232 111.095 279.026 111.114 278.776 111.114C278.397 111.114 278.026 111.032 277.662 110.869C277.302 110.706 277.003 110.458 276.764 110.125C276.529 109.792 276.412 109.371 276.412 108.864V100.182ZM284.202 111.205C283.649 111.205 283.147 111.1 282.696 110.892C282.245 110.68 281.887 110.375 281.622 109.977C281.357 109.576 281.224 109.091 281.224 108.523C281.224 108.023 281.323 107.617 281.52 107.307C281.717 106.992 281.98 106.746 282.31 106.568C282.639 106.39 283.003 106.258 283.401 106.17C283.802 106.08 284.205 106.008 284.611 105.955C285.141 105.886 285.571 105.835 285.901 105.801C286.234 105.763 286.476 105.701 286.628 105.614C286.783 105.527 286.861 105.375 286.861 105.159V105.114C286.861 104.553 286.707 104.117 286.401 103.807C286.098 103.496 285.637 103.341 285.02 103.341C284.38 103.341 283.878 103.481 283.514 103.761C283.151 104.042 282.895 104.341 282.747 104.659L281.474 104.205C281.702 103.674 282.005 103.261 282.384 102.966C282.766 102.667 283.183 102.458 283.634 102.341C284.088 102.22 284.535 102.159 284.974 102.159C285.255 102.159 285.577 102.193 285.94 102.261C286.308 102.326 286.662 102.46 287.003 102.665C287.348 102.869 287.634 103.178 287.861 103.591C288.088 104.004 288.202 104.557 288.202 105.25V111H286.861V109.818H286.793C286.702 110.008 286.55 110.21 286.338 110.426C286.126 110.642 285.844 110.826 285.491 110.977C285.139 111.129 284.709 111.205 284.202 111.205ZM284.406 110C284.937 110 285.384 109.896 285.747 109.688C286.115 109.479 286.391 109.21 286.577 108.881C286.766 108.551 286.861 108.205 286.861 107.841V106.614C286.804 106.682 286.679 106.744 286.486 106.801C286.296 106.854 286.077 106.902 285.827 106.943C285.58 106.981 285.34 107.015 285.105 107.045C284.874 107.072 284.687 107.095 284.543 107.114C284.194 107.159 283.868 107.233 283.565 107.335C283.266 107.434 283.024 107.583 282.838 107.784C282.656 107.981 282.565 108.25 282.565 108.591C282.565 109.057 282.738 109.409 283.082 109.648C283.431 109.883 283.872 110 284.406 110ZM294.445 102.273V103.409H289.922V102.273H294.445ZM291.24 100.182H292.581V108.5C292.581 108.879 292.636 109.163 292.746 109.352C292.859 109.538 293.003 109.663 293.178 109.727C293.356 109.788 293.543 109.818 293.74 109.818C293.888 109.818 294.009 109.811 294.104 109.795C294.198 109.777 294.274 109.761 294.331 109.75L294.604 110.955C294.513 110.989 294.386 111.023 294.223 111.057C294.06 111.095 293.854 111.114 293.604 111.114C293.225 111.114 292.854 111.032 292.49 110.869C292.13 110.706 291.831 110.458 291.592 110.125C291.357 109.792 291.24 109.371 291.24 108.864V100.182ZM296.462 111V102.273H297.803V111H296.462ZM297.143 100.818C296.882 100.818 296.657 100.729 296.467 100.551C296.282 100.373 296.189 100.159 296.189 99.9091C296.189 99.6591 296.282 99.4451 296.467 99.267C296.657 99.089 296.882 99 297.143 99C297.405 99 297.628 99.089 297.814 99.267C298.003 99.4451 298.098 99.6591 298.098 99.9091C298.098 100.159 298.003 100.373 297.814 100.551C297.628 100.729 297.405 100.818 297.143 100.818ZM303.804 111.182C303.016 111.182 302.325 110.994 301.73 110.619C301.139 110.244 300.677 109.72 300.344 109.045C300.014 108.371 299.849 107.583 299.849 106.682C299.849 105.773 300.014 104.979 300.344 104.301C300.677 103.623 301.139 103.097 301.73 102.722C302.325 102.347 303.016 102.159 303.804 102.159C304.592 102.159 305.281 102.347 305.872 102.722C306.467 103.097 306.929 103.623 307.259 104.301C307.592 104.979 307.759 105.773 307.759 106.682C307.759 107.583 307.592 108.371 307.259 109.045C306.929 109.72 306.467 110.244 305.872 110.619C305.281 110.994 304.592 111.182 303.804 111.182ZM303.804 109.977C304.402 109.977 304.895 109.824 305.281 109.517C305.668 109.21 305.954 108.807 306.139 108.307C306.325 107.807 306.418 107.265 306.418 106.682C306.418 106.098 306.325 105.555 306.139 105.051C305.954 104.547 305.668 104.14 305.281 103.83C304.895 103.519 304.402 103.364 303.804 103.364C303.205 103.364 302.713 103.519 302.327 103.83C301.94 104.14 301.654 104.547 301.469 105.051C301.283 105.555 301.19 106.098 301.19 106.682C301.19 107.265 301.283 107.807 301.469 108.307C301.654 108.807 301.94 109.21 302.327 109.517C302.713 109.824 303.205 109.977 303.804 109.977ZM311.146 105.75V111H309.805V102.273H311.101V103.636H311.214C311.419 103.193 311.73 102.837 312.146 102.568C312.563 102.295 313.101 102.159 313.76 102.159C314.351 102.159 314.868 102.28 315.311 102.523C315.754 102.761 316.099 103.125 316.345 103.614C316.591 104.098 316.714 104.712 316.714 105.455V111H315.374V105.545C315.374 104.86 315.196 104.326 314.839 103.943C314.483 103.557 313.995 103.364 313.374 103.364C312.946 103.364 312.563 103.456 312.226 103.642C311.893 103.828 311.629 104.098 311.436 104.455C311.243 104.811 311.146 105.242 311.146 105.75ZM325.347 104.227L324.142 104.568C324.066 104.367 323.955 104.172 323.807 103.983C323.663 103.79 323.466 103.631 323.216 103.506C322.966 103.381 322.646 103.318 322.256 103.318C321.722 103.318 321.277 103.441 320.92 103.688C320.568 103.93 320.392 104.239 320.392 104.614C320.392 104.947 320.513 105.21 320.756 105.403C320.998 105.597 321.377 105.758 321.892 105.886L323.188 106.205C323.968 106.394 324.549 106.684 324.932 107.074C325.314 107.46 325.506 107.958 325.506 108.568C325.506 109.068 325.362 109.515 325.074 109.909C324.79 110.303 324.392 110.614 323.881 110.841C323.369 111.068 322.775 111.182 322.097 111.182C321.206 111.182 320.47 110.989 319.886 110.602C319.303 110.216 318.934 109.652 318.778 108.909L320.051 108.591C320.172 109.061 320.402 109.413 320.739 109.648C321.08 109.883 321.525 110 322.074 110C322.699 110 323.195 109.867 323.562 109.602C323.934 109.333 324.119 109.011 324.119 108.636C324.119 108.333 324.013 108.08 323.801 107.875C323.589 107.667 323.263 107.511 322.824 107.409L321.369 107.068C320.57 106.879 319.983 106.585 319.608 106.188C319.237 105.786 319.051 105.284 319.051 104.682C319.051 104.189 319.189 103.754 319.466 103.375C319.746 102.996 320.127 102.699 320.608 102.483C321.093 102.267 321.642 102.159 322.256 102.159C323.119 102.159 323.797 102.348 324.29 102.727C324.786 103.106 325.138 103.606 325.347 104.227Z" fill="#888888"/>
<path fill-rule="evenodd" clip-rule="evenodd" d="M21.7198 54.025C20 56.4723 20 63.7468 20 78.296V85.4609C20 111.114 39.3108 123.563 51.4268 128.849C54.7133 130.283 56.3565 131 61 131C65.6435 131 67.2867 130.283 70.573 128.849C82.689 123.563 102 111.114 102 85.4609V78.296C102 63.7468 102 56.4723 100.28 54.025C98.5605 51.5777 91.7122 49.2363 78.0155 44.5536L75.406 43.6615C68.2661 41.2205 64.6964 40 61 40C57.3036 40 53.7339 41.2205 46.5941 43.6615L43.9846 44.5536C30.2879 49.2363 23.4396 51.5777 21.7198 54.025ZM74.9377 78.6727C76.1941 77.2668 76.0721 75.1097 74.6644 73.8545C73.2567 72.5992 71.0969 72.7214 69.8401 74.1272L56.1192 89.4762L52.1599 85.0473C50.903 83.6413 48.7431 83.5194 47.3356 84.7743C45.928 86.0296 45.8057 88.1868 47.0625 89.5927L53.5703 96.8727C54.2186 97.598 55.1457 98.0125 56.1192 98.0125C57.0922 98.0125 58.0193 97.598 58.6676 96.8727L74.9377 78.6727Z" fill="url(#paint0_linear_204_302)"/>
<defs>
<linearGradient id="paint0_linear_204_302" x1="60.7526" y1="45.7234" x2="61.2462" y2="125.277" gradientUnits="userSpaceOnUse">
<stop offset="0.131383" stop-color="#FF9240"/>
<stop offset="0.812789" stop-color="#F46C00"/>
</linearGradient>
</defs>
</svg>
